<?xml version="1.0" standalone="yes"?>

<svg version="1.1" viewBox="0.0 0.0 697.0 697.0" fill="none" stroke="none" stroke-linecap="square" stroke-miterlimit="10" xmlns="http://www.w3.org/2000/svg" xmlns:xlink="http://www.w3.org/1999/xlink"><clipPath id="p.0"><path d="m0 0l697.0 0l0 697.0l-697.0 0l0 -697.0z" clip-rule="nonzero"></path></clipPath><g clip-path="url(#p.0)"><path fill="#000000" d="m0 0l697.0 0l0 697.0l-697.0 0z" fill-rule="evenodd"></path><path fill="#000000" fill-opacity="0.0" d="m113.9287 557.17834l60.566933 0l0 76.12598l-60.566933 0z" fill-rule="evenodd"></path><path fill="#000000" fill-opacity="0.0" d="m108.29868 169.34764l20.755913 0l0 358.3307l-20.755913 0z" fill-rule="evenodd"></path><path stroke="#ffffff" stroke-width="2.0" stroke-linejoin="round" stroke-linecap="butt" d="m108.29868 169.34764l20.755913 0l0 358.3307l-20.755913 0z" fill-rule="evenodd"></path><path fill="#000000" d="m58.832283 189.29703l119.68743 0l0 37.49971l-119.68743 0z" fill-rule="evenodd"></path><path stroke="#ffffff" stroke-width="2.0" stroke-linejoin="round" stroke-linecap="butt" d="m58.832283 189.29703l119.68743 0l0 37.49971l-119.68743 0z" fill-rule="evenodd"></path><path fill="#ffffff" d="m58.832283 203.66103l119.68743 0l0 7.992569l-119.68743 0z" fill-rule="evenodd"></path><path fill="#000000" fill-opacity="0.0" d="m261.51553 169.34764l20.75592 0l0 358.3307l-20.75592 0z" fill-rule="evenodd"></path><path stroke="#ffffff" stroke-width="2.0" stroke-linejoin="round" stroke-linecap="butt" d="m261.51553 169.34764l20.75592 0l0 358.3307l-20.75592 0z" fill-rule="evenodd"></path><path fill="#000000" d="m212.04828 329.7492l119.68744 0l0 37.499725l-119.68744 0z" fill-rule="evenodd"></path><path stroke="#ffffff" stroke-width="2.0" stroke-linejoin="round" stroke-linecap="butt" d="m212.04828 329.7492l119.68744 0l0 37.499725l-119.68744 0z" fill-rule="evenodd"></path><path fill="#ffffff" d="m212.04828 344.11322l119.68744 0l0 7.9925537l-119.68744 0z" fill-rule="evenodd"></path><path fill="#000000" fill-opacity="0.0" d="m414.73242 169.34764l20.75589 0l0 358.3307l-20.75589 0z" fill-rule="evenodd"></path><path stroke="#ffffff" stroke-width="2.0" stroke-linejoin="round" stroke-linecap="butt" d="m414.73242 169.34764l20.75589 0l0 358.3307l-20.75589 0z" fill-rule="evenodd"></path><path fill="#000000" d="m365.26428 470.19302l119.68744 0l0 37.499725l-119.68744 0z" fill-rule="evenodd"></path><path stroke="#ffffff" stroke-width="2.0" stroke-linejoin="round" stroke-linecap="butt" d="m365.26428 470.19302l119.68744 0l0 37.499725l-119.68744 0z" fill-rule="evenodd"></path><path fill="#ffffff" d="m365.26428 484.55704l119.68744 0l0 7.9925537l-119.68744 0z" fill-rule="evenodd"></path><path fill="#000000" fill-opacity="0.0" d="m567.9493 169.34764l20.75592 0l0 358.3307l-20.75592 0z" fill-rule="evenodd"></path><path stroke="#ffffff" stroke-width="2.0" stroke-linejoin="round" stroke-linecap="butt" d="m567.9493 169.34764l20.75592 0l0 358.3307l-20.75592 0z" fill-rule="evenodd"></path><path fill="#000000" d="m518.4803 189.29703l119.68744 0l0 37.49971l-119.68744 0z" fill-rule="evenodd"></path><path stroke="#ffffff" stroke-width="2.0" stroke-linejoin="round" stroke-linecap="butt" d="m518.4803 189.29703l119.68744 0l0 37.49971l-119.68744 0z" fill-rule="evenodd"></path><path fill="#ffffff" d="m518.4803 203.66103l119.68744 0l0 7.992569l-119.68744 0z" fill-rule="evenodd"></path><path fill="#ffff00" d="m74.518585 551.07074l88.31496 0l0 88.31494l-88.31496 0z" fill-rule="evenodd"></path><path fill="#000000" d="m145.27484 618.18445q0.40625 1.046875 0.40625 1.765625q0 1.671875 -1.203125 2.875q-1.203125 1.203125 -2.96875 1.203125q-1.1875 0 -2.28125 -0.671875q-1.078125 -0.6875 -1.546875 -1.890625l-4.484375 -11.203125l-28.718742 0l-4.5625 11.203125q-0.5625 1.203125 -1.609375 1.890625q-1.03125 0.671875 -2.234375 0.671875q-1.75 0 -2.921875 -1.234375q-1.15625 -1.25 -1.15625 -2.921875q0 -0.796875 0.40625 -1.84375l22.46875 -53.6875q1.203125 -2.796875 3.921875 -2.796875q2.890625 0 3.921875 2.796875l22.562492 53.84375zm-14.875 -14.796875l-11.437492 -28.484375l-11.6875 28.484375l23.124992 0z" fill-rule="nonzero"></path><path fill="#ff00ff" d="m228.24442 551.07074l88.31497 0l0 88.31494l-88.31497 0z" fill-rule="evenodd"></path><path fill="#000000" d="m291.92505 615.7157q1.75 0 2.953125 1.203125q1.203125 1.1875 1.203125 2.953125q0 1.75 -1.203125 2.953125q-1.203125 1.203125 -2.953125 1.203125l-33.125 0q-1.765625 0 -2.921875 -1.203125q-1.15625 -1.203125 -1.15625 -2.953125l0 -54.15625q0 -1.765625 1.203125 -2.96875q1.203125 -1.203125 2.875 -1.203125q1.765625 0 2.953125 1.203125q1.203125 1.203125 1.203125 2.96875l0 50.0l28.96875 0z" fill-rule="nonzero"></path><path fill="#00ffff" d="m381.20786 551.07074l88.31494 0l0 88.31494l-88.31494 0z" fill-rule="evenodd"></path><path fill="#000000" d="m404.9666 568.9032q-1.921875 0 -2.96875 -0.953125q-1.03125 -0.96875 -0.953125 -2.5625q-0.078125 -1.671875 1.078125 -2.75q1.15625 -1.09375 3.0 -1.09375l41.28125 0q1.921875 0 3.078125 1.25q1.15625 1.234375 1.15625 2.921875q0 1.265625 -0.875 2.390625l-39.28125 48.5625l35.921875 0q1.765625 0 2.921875 1.078125q1.15625 1.078125 1.15625 2.515625q0 1.765625 -1.125 2.765625q-1.109375 1.0 -2.953125 1.0l-42.234375 0q-1.84375 0 -2.96875 -1.28125q-1.109375 -1.28125 -1.109375 -2.953125q0 -1.453125 0.796875 -2.484375l39.109375 -48.40625l-35.03125 0z" fill-rule="nonzero"></path><path fill="#00ff00" d="m534.1692 551.07074l88.31494 0l0 88.31494l-88.31494 0z" fill-rule="evenodd"></path><path fill="#000000" d="m604.9254 618.18445q0.40625 1.046875 0.40625 1.765625q0 1.671875 -1.203125 2.875q-1.203125 1.203125 -2.96875 1.203125q-1.1875 0 -2.28125 -0.671875q-1.078125 -0.6875 -1.546875 -1.890625l-4.484375 -11.203125l-28.71875 0l-4.5625 11.203125q-0.5625 1.203125 -1.609375 1.890625q-1.03125 0.671875 -2.234375 0.671875q-1.75 0 -2.921875 -1.234375q-1.15625 -1.25 -1.15625 -2.921875q0 -0.796875 0.40625 -1.84375l22.46875 -53.6875q1.203125 -2.796875 3.921875 -2.796875q2.890625 0 3.921875 2.796875l22.5625 53.84375zm-14.875 -14.796875l-11.4375 -28.484375l-11.6875 28.484375l23.125 0z" fill-rule="nonzero"></path><path fill="#000000" fill-opacity="0.0" d="m74.518585 57.614296l88.31496 0l0 88.314964l-88.31496 0z" fill-rule="evenodd"></path><path stroke="#ffffff" stroke-width="2.0" stroke-linejoin="round" stroke-linecap="butt" d="m74.518585 57.614296l88.31496 0l0 88.314964l-88.31496 0z" fill-rule="evenodd"></path><path fill="#ffffff" d="m113.99673 68.087395q9.046875 0 16.078117 4.0q7.046875 4.0 10.953125 11.09375q3.921875 7.078125 3.921875 16.109375q0 9.046875 -3.921875 16.171875q-3.90625 7.109375 -10.953125 11.109375q-7.0312424 3.9999924 -16.078117 3.9999924l-14.484375 0q-1.75 0 -2.953125 -1.203125q-1.203125 -1.203125 -1.203125 -2.9531174l0 -54.15625q0 -1.84375 1.203125 -3.0q1.203125 -1.171875 2.953125 -1.171875l14.484375 0zm0 55.125q6.640625 0 11.875 -3.03125q5.2499924 -3.046875 8.156242 -8.53125q2.921875 -5.484375 2.921875 -12.359375q0 -6.875 -2.921875 -12.3125q-2.90625 -5.453125 -8.156242 -8.484375q-5.234375 -3.046875 -11.875 -3.046875l-10.328125 0l0 47.765625l10.328125 0z" fill-rule="nonzero"></path><path fill="#000000" fill-opacity="0.0" d="m227.73546 57.614296l88.31496 0l0 88.314964l-88.31496 0z" fill-rule="evenodd"></path><path stroke="#ffffff" stroke-width="2.0" stroke-linejoin="round" stroke-linecap="butt" d="m227.73546 57.614296l88.31496 0l0 88.314964l-88.31496 0z" fill-rule="evenodd"></path><path fill="#ffffff" d="m288.9311 112.16552q0 5.609375 -2.484375 9.96875q-2.46875 4.359375 -6.828125 6.7968674q-4.359375 2.4375 -9.96875 2.4375q-5.59375 0 -9.953125 -2.4375q-4.3593903 -2.4374924 -6.8125153 -6.7968674q-2.4375 -4.359375 -2.4375 -9.96875q0 -1.828125 1.203125 -2.984375q1.203125 -1.171875 2.96875 -1.171875q1.8281403 0 2.9843903 1.171875q1.171875 1.15625 1.171875 2.984375q0 5.125 3.03125 8.40625q3.046875 3.28125 7.84375 3.28125q4.796875 0 7.875 -3.28125q3.09375 -3.28125 3.09375 -8.40625l0 -39.90625q0 -1.84375 1.15625 -3.0q1.15625 -1.171875 2.921875 -1.171875q1.84375 0 3.03125 1.171875q1.203125 1.15625 1.203125 3.0l0 39.90625z" fill-rule="nonzero"></path><path fill="#000000" fill-opacity="0.0" d="m380.95383 57.615345l88.31497 0l0 88.31496l-88.31497 0z" fill-rule="evenodd"></path><path stroke="#ffffff" stroke-width="2.0" stroke-linejoin="round" stroke-linecap="butt" d="m380.95383 57.615345l88.31497 0l0 88.31496l-88.31497 0z" fill-rule="evenodd"></path><path fill="#000000" fill-opacity="0.0" d="m534.1709 57.615345l88.315 0l0 88.31496l-88.315 0z" fill-rule="evenodd"></path><path stroke="#ffffff" stroke-width="2.0" stroke-linejoin="round" stroke-linecap="butt" d="m534.1709 57.615345l88.315 0l0 88.31496l-88.315 0z" fill-rule="evenodd"></path></g></svg>

