<?xml version="1.0" standalone="yes"?>

<svg version="1.1" viewBox="0.0 0.0 697.0 697.0" fill="none" stroke="none" stroke-linecap="square" stroke-miterlimit="10" xmlns="http://www.w3.org/2000/svg" xmlns:xlink="http://www.w3.org/1999/xlink"><clipPath id="p.0"><path d="m0 0l697.0 0l0 697.0l-697.0 0l0 -697.0z" clip-rule="nonzero"></path></clipPath><g clip-path="url(#p.0)"><path fill="#000000" d="m0 0l697.0 0l0 697.0l-697.0 0z" fill-rule="evenodd"></path><path fill="#000000" fill-opacity="0.0" d="m113.9287 557.17834l60.566933 0l0 76.12598l-60.566933 0z" fill-rule="evenodd"></path><path fill="#000000" fill-opacity="0.0" d="m108.29868 169.34764l20.755913 0l0 358.3307l-20.755913 0z" fill-rule="evenodd"></path><path stroke="#ffffff" stroke-width="2.0" stroke-linejoin="round" stroke-linecap="butt" d="m108.29868 169.34764l20.755913 0l0 358.3307l-20.755913 0z" fill-rule="evenodd"></path><path fill="#000000" d="m58.832283 189.29703l119.68743 0l0 37.49971l-119.68743 0z" fill-rule="evenodd"></path><path stroke="#ffffff" stroke-width="2.0" stroke-linejoin="round" stroke-linecap="butt" d="m58.832283 189.29703l119.68743 0l0 37.49971l-119.68743 0z" fill-rule="evenodd"></path><path fill="#ffffff" d="m58.832283 203.66103l119.68743 0l0 7.992569l-119.68743 0z" fill-rule="evenodd"></path><path fill="#000000" fill-opacity="0.0" d="m261.51553 169.34764l20.75592 0l0 358.3307l-20.75592 0z" fill-rule="evenodd"></path><path stroke="#ffffff" stroke-width="2.0" stroke-linejoin="round" stroke-linecap="butt" d="m261.51553 169.34764l20.75592 0l0 358.3307l-20.75592 0z" fill-rule="evenodd"></path><path fill="#000000" d="m212.04828 329.7492l119.68744 0l0 37.499725l-119.68744 0z" fill-rule="evenodd"></path><path stroke="#ffffff" stroke-width="2.0" stroke-linejoin="round" stroke-linecap="butt" d="m212.04828 329.7492l119.68744 0l0 37.499725l-119.68744 0z" fill-rule="evenodd"></path><path fill="#ffffff" d="m212.04828 344.11322l119.68744 0l0 7.9925537l-119.68744 0z" fill-rule="evenodd"></path><path fill="#000000" fill-opacity="0.0" d="m414.73242 169.34764l20.75589 0l0 358.3307l-20.75589 0z" fill-rule="evenodd"></path><path stroke="#ffffff" stroke-width="2.0" stroke-linejoin="round" stroke-linecap="butt" d="m414.73242 169.34764l20.75589 0l0 358.3307l-20.75589 0z" fill-rule="evenodd"></path><path fill="#000000" d="m365.26428 470.19302l119.68744 0l0 37.499725l-119.68744 0z" fill-rule="evenodd"></path><path stroke="#ffffff" stroke-width="2.0" stroke-linejoin="round" stroke-linecap="butt" d="m365.26428 470.19302l119.68744 0l0 37.499725l-119.68744 0z" fill-rule="evenodd"></path><path fill="#ffffff" d="m365.26428 484.55704l119.68744 0l0 7.9925537l-119.68744 0z" fill-rule="evenodd"></path><path fill="#000000" fill-opacity="0.0" d="m567.9493 169.34764l20.75592 0l0 358.3307l-20.75592 0z" fill-rule="evenodd"></path><path stroke="#ffffff" stroke-width="2.0" stroke-linejoin="round" stroke-linecap="butt" d="m567.9493 169.34764l20.75592 0l0 358.3307l-20.75592 0z" fill-rule="evenodd"></path><path fill="#000000" d="m518.4803 189.29703l119.68744 0l0 37.49971l-119.68744 0z" fill-rule="evenodd"></path><path stroke="#ffffff" stroke-width="2.0" stroke-linejoin="round" stroke-linecap="butt" d="m518.4803 189.29703l119.68744 0l0 37.49971l-119.68744 0z" fill-rule="evenodd"></path><path fill="#ffffff" d="m518.4803 203.66103l119.68744 0l0 7.992569l-119.68744 0z" fill-rule="evenodd"></path><path fill="#ffff00" d="m74.518585 551.07074l88.31496 0l0 88.31494l-88.31496 0z" fill-rule="evenodd"></path><path fill="#ff00ff" d="m228.24442 551.07074l88.31497 0l0 88.31494l-88.31497 0z" fill-rule="evenodd"></path><path fill="#00ffff" d="m381.20786 551.07074l88.31494 0l0 88.31494l-88.31494 0z" fill-rule="evenodd"></path><path fill="#00ff00" d="m534.1692 551.07074l88.31494 0l0 88.31494l-88.31494 0z" fill-rule="evenodd"></path><path fill="#000000" fill-opacity="0.0" d="m74.518585 57.614296l88.31496 0l0 88.314964l-88.31496 0z" fill-rule="evenodd"></path><path stroke="#ffffff" stroke-width="2.0" stroke-linejoin="round" stroke-linecap="butt" d="m74.518585 57.614296l88.31496 0l0 88.314964l-88.31496 0z" fill-rule="evenodd"></path><path fill="#000000" fill-opacity="0.0" d="m227.73546 57.614296l88.31496 0l0 88.314964l-88.31496 0z" fill-rule="evenodd"></path><path stroke="#ffffff" stroke-width="2.0" stroke-linejoin="round" stroke-linecap="butt" d="m227.73546 57.614296l88.31496 0l0 88.314964l-88.31496 0z" fill-rule="evenodd"></path><path fill="#000000" fill-opacity="0.0" d="m380.95383 57.615345l88.31497 0l0 88.31496l-88.31497 0z" fill-rule="evenodd"></path><path stroke="#ffffff" stroke-width="2.0" stroke-linejoin="round" stroke-linecap="butt" d="m380.95383 57.615345l88.31497 0l0 88.31496l-88.31497 0z" fill-rule="evenodd"></path><path fill="#000000" fill-opacity="0.0" d="m534.1709 57.615345l88.315 0l0 88.31496l-88.315 0z" fill-rule="evenodd"></path><path stroke="#ffffff" stroke-width="2.0" stroke-linejoin="round" stroke-linecap="butt" d="m534.1709 57.615345l88.315 0l0 88.31496l-88.315 0z" fill-rule="evenodd"></path></g></svg>

